HIERARCHY
ROOT hip
{
  OFFSET 0 0 0
  CHANNELS 6 Xposition Yposition Zposition Zrotation Yrotation Xrotation
  JOINT abdomen
  {
    OFFSET 0 20.6881 -0.73152
    CHANNELS 3 Zrotation Xrotation Yrotation
    JOINT chest
    {
      OFFSET 0 11.7043 -0.48768
      CHANNELS 3 Zrotation Xrotation Yrotation
      JOINT neck
      {
        OFFSET 0 22.1894 -2.19456
        CHANNELS 3 Zrotation Xrotation Yrotation
        JOINT head
        {
          OFFSET -0.24384 7.07133 1.2192
          CHANNELS 3 Zrotation Xrotation Yrotation
          JOINT leftEye
          {
            OFFSET 4.14528 8.04674 8.04672
            CHANNELS 3 Zrotation Xrotation Yrotation
            End Site
            {
              OFFSET 1 0 0
            }
          }
          JOINT rightEye
          {
            OFFSET -3.6576 8.04674 8.04672
            CHANNELS 3 Zrotation Xrotation Yrotation
            End Site
            {
              OFFSET 1 0 0
            }
          }
        }
      }
      JOINT rCollar
      {
        OFFSET -2.68224 19.2634 -4.8768
        CHANNELS 3 Zrotation Xrotation Yrotation
        JOINT rShldr
        {
          OFFSET -8.77824 -1.95073 1.46304
          CHANNELS 3 Zrotation Xrotation Yrotation
          JOINT rForeArm
          {
            OFFSET -28.1742 -1.7115 0.48768
            CHANNELS 3 Zrotation Xrotation Yrotation
            JOINT rHand
            {
              OFFSET -22.5879 0.773209 7.07136
              CHANNELS 3 Zrotation Xrotation Yrotation
              JOINT rThumb1
              {
                OFFSET -1.2192 -0.487915 3.41376
                CHANNELS 3 Zrotation Xrotation Yrotation
                JOINT rThumb2
                {
                  OFFSET -3.37035 -0.52449 3.41376
                  CHANNELS 3 Zrotation Xrotation Yrotation
                  End Site
                  {
                    OFFSET -1.78271 -1.18214 1.43049
                  }
                }
              }
              JOINT rIndex1
              {
                OFFSET -7.75947 0.938293 5.60832
                CHANNELS 3 Zrotation Xrotation Yrotation
                JOINT rIndex2
                {
                  OFFSET -2.54057 -0.884171 1.56538
                  CHANNELS 3 Zrotation Xrotation Yrotation
                  End Site
                  {
                    OFFSET -1.62519 -0.234802 1.16502
                  }
                }
              }
              JOINT rMid1
              {
                OFFSET -8.24714 1.18213 3.41376
                CHANNELS 3 Zrotation Xrotation Yrotation
                JOINT rMid2
                {
                  OFFSET -3.10165 -0.590103 1.0647
                  CHANNELS 3 Zrotation Xrotation Yrotation
                  End Site
                  {
                    OFFSET -2.48547 -0.328903 0.83742
                  }
                }
              }
              JOINT rRing1
              {
                OFFSET -8.82822 0.546677 1.51678
                CHANNELS 3 Zrotation Xrotation Yrotation
                JOINT rRing2
                {
                  OFFSET -2.60934 -0.819778 -0.0198488
                  CHANNELS 3 Zrotation Xrotation Yrotation
                  End Site
                  {
                    OFFSET -2.33842 -0.294052 0.168128
                  }
                }
              }
              JOINT rPinky1
              {
                OFFSET -8.27202 -0.0477905 -0.4584
                CHANNELS 3 Zrotation Xrotation Yrotation
                JOINT rPinky2
                {
                  OFFSET -1.82734 -0.647385 -0.700984
                  CHANNELS 3 Zrotation Xrotation Yrotation
                  End Site
                  {
                    OFFSET -1.69225 -0.51767 -0.607171
                  }
                }
              }
            }
          }
        }
      }
      JOINT lCollar
      {
        OFFSET 2.68224 19.2634 -4.8768
        CHANNELS 3 Zrotation Xrotation Yrotation
        JOINT lShldr
        {
          OFFSET 8.77824 -1.95073 1.46304
          CHANNELS 3 Zrotation Xrotation Yrotation
          JOINT lForeArm
          {
            OFFSET 28.1742 -1.7115 0.48768
            CHANNELS 3 Zrotation Xrotation Yrotation
            JOINT lHand
            {
              OFFSET 22.5879 0.773209 7.07136
              CHANNELS 3 Zrotation Xrotation Yrotation
              JOINT lThumb1
              {
                OFFSET 1.2192 -0.487915 3.41376
                CHANNELS 3 Zrotation Xrotation Yrotation
                JOINT lThumb2
                {
                  OFFSET 3.37035 -0.52449 3.41376
                  CHANNELS 3 Zrotation Xrotation Yrotation
                  End Site
                  {
                    OFFSET 1.78271 -1.18214 1.43049
                  }
                }
              }
              JOINT lIndex1
              {
                OFFSET 7.75947 0.938293 5.60832
                CHANNELS 3 Zrotation Xrotation Yrotation
                JOINT lIndex2
                {
                  OFFSET 2.54057 -0.884171 1.56538
                  CHANNELS 3 Zrotation Xrotation Yrotation
                  End Site
                  {
                    OFFSET 1.62519 -0.234802 1.16502
                  }
                }
              }
              JOINT lMid1
              {
                OFFSET 8.24714 1.18213 3.41376
                CHANNELS 3 Zrotation Xrotation Yrotation
                JOINT lMid2
                {
                  OFFSET 3.10165 -0.590103 1.0647
                  CHANNELS 3 Zrotation Xrotation Yrotation
                  End Site
                  {
                    OFFSET 2.48547 -0.328903 0.83742
                  }
                }
              }
              JOINT lRing1
              {
                OFFSET 8.82822 0.546677 1.51678
                CHANNELS 3 Zrotation Xrotation Yrotation
                JOINT lRing2
                {
                  OFFSET 2.60934 -0.819778 -0.0198488
                  CHANNELS 3 Zrotation Xrotation Yrotation
                  End Site
                  {
                    OFFSET 2.33842 -0.294052 0.168128
                  }
                }
              }
              JOINT lPinky1
              {
                OFFSET 8.27202 -0.0477905 -0.4584
                CHANNELS 3 Zrotation Xrotation Yrotation
                JOINT lPinky2
                {
                  OFFSET 1.82734 -0.647385 -0.700984
                  CHANNELS 3 Zrotation Xrotation Yrotation
                  End Site
                  {
                    OFFSET 1.69225 -0.51767 -0.607171
                  }
                }
              }
            }
          }
        }
      }
    }
  }
  JOINT rButtock
  {
    OFFSET -8.77824 4.35084 1.2192
    CHANNELS 3 Zrotation Xrotation Yrotation
    JOINT rThigh
    {
      OFFSET 0 -1.70687 -2.19456
      CHANNELS 3 Zrotation Xrotation Yrotation
      JOINT rShin
      {
        OFFSET 0 -36.8199 0.73152
        CHANNELS 3 Zrotation Xrotation Yrotation
        JOINT rFoot
        {
          OFFSET 0.73152 -45.1104 -5.12064
          CHANNELS 3 Zrotation Xrotation Yrotation
          End Site
          {
            OFFSET -1.1221 -3.69964 12.103
          }
        }
      }
    }
  }
  JOINT lButtock
  {
    OFFSET 8.77824 4.35084 1.2192
    CHANNELS 3 Zrotation Xrotation Yrotation
    JOINT lThigh
    {
      OFFSET 0 -1.70687 -2.19456
      CHANNELS 3 Zrotation Xrotation Yrotation
      JOINT lShin
      {
        OFFSET 0 -36.8199 0.73152
        CHANNELS 3 Zrotation Xrotation Yrotation
        JOINT lFoot
        {
          OFFSET -0.73152 -45.1104 -5.12064
          CHANNELS 3 Zrotation Xrotation Yrotation
          End Site
          {
            OFFSET 1.1221 -3.69964 12.103
          }
        }
      }
    }
  }
}
MOTION
Frames:	6
Frame Time:	0.03333
-0.9871 55.9599 -1.1788 171.392369 16.648103 -177.080467 -21.116521 7.405396 90.592126 -9.266702 -11.908873 -115.032025 7.520618 32.564166 87.602542 -40.944695 6.214099 -154.368248 -0.00282 0.0 -0.000219 -0.00282 0.0 -0.000219 -157.797598 -22.115708 165.466375 146.907823 -8.796231 -173.425892 4.163503 -17.265654 37.444132 -8.209464 33.987743 2.380849 -171.603826 -9.28617 89.949264 -152.818052 3.530264 79.463858 -37.73262 36.426291 28.889606 -170.725013 -20.98128 111.175017 -39.28921 53.366218 32.87746 -4.588165 20.809908 4.372539 -70.379286 -72.129984 -87.2801 -150.972429 -0.756514 176.392849 -23.392299 -36.348941 -22.493944 -158.221011 52.57203 -149.510705 155.547979 -3.803986 -161.90091 148.021018 -86.221906 94.673152 -21.856319 80.050662 84.099499 -158.257581 -32.825531 -140.662872 178.928407 -16.453374 -89.421155 54.213919 -7.425319 -8.671297 -60.461689 -70.523628 -15.712181 -163.344615 -57.612851 -95.372944 125.643128 49.83939 -115.273475 42.230294 58.377428 -36.49366 145.11914 0.18521 179.186973 -12.013741 33.470284 5.208398 -3.23852 9.114125 -2.945897 22.923645 -40.151813 23.477181 0.000599 0.000201 -0.000771 -60.426881 -62.356401 -63.312069 -31.088604 69.83856 63.258627 141.004398 -42.577463 14.672554 -0.003882 -0.001519 -0.003882 3.811697 16.2048 -0.99237 -2.563824 39.739823 144.47868 178.600916 26.572473 85.43228
-1.0058 55.970200000000006 -1.1986 171.479604 16.626683 -177.03984 -18.835633 9.839995 2.53533 9.391669 -11.838325 -25.026694 -14.808955 39.689939 -107.563518 43.282518 26.901583 33.707631 -0.001776 0.0 -0.00254 -0.001246 -0.0 0.00291 -0.048553 0.292359 0.065677 -43.961767 82.253764 108.141751 -13.816438 -68.03928 20.203023 -4.956556 24.928473 1.538032 -68.482462 37.953703 35.659668 -128.032155 -22.780496 84.421737 2.324602 -3.868102 -1.259803 -137.110112 18.705859 104.161251 -151.47543 17.841484 137.538738 11.617715 -24.884694 -1.164526 -0.000333 -0.018427 -0.006213 9.0898 14.086187 1.867949 -82.835782 -50.988513 -81.238469 2.260746 -2.982092 -1.939009 3.767193 17.921127 -4.640633 -60.425756 31.712292 -31.062476 -166.047983 25.236615 -122.158902 -165.117948 -18.079004 -145.456185 -12.713872 -12.673791 0.552763 2.791707 -1.415033 6.510643 149.818471 -14.317304 -120.599505 86.009602 56.789378 -67.40494 153.321002 13.629307 -138.863291 7.420974 26.126436 -6.432999 0.021017 -1.725816 0.543992 -10.461948 0.117403 0.054418 155.615596 50.802164 149.743486 161.44177 52.589892 147.187394 0.003677 -0.000456 0.005516 -60.333372 -62.365076 -63.22281 -58.437819 66.923642 -15.089092 79.623827 -81.232727 -178.03193 179.987435 75.751145 0.010339 -96.153365 86.28642 96.140543 13.98897 -38.803515 61.992042 -107.826255 22.542977 -161.340089
-1.0193 56.0291 -1.2235 171.519107 16.616392 -177.071673 -18.746085 5.123419 -180.0 -9.668654 6.692779 156.60588 -11.905651 26.886421 -28.289615 28.797252 -23.667656 -30.918596 0.001486 -0.0 -0.002944 -0.003682 -0.0 0.002951 -143.620939 38.233572 148.080933 157.472361 7.576679 135.636741 4.503378 47.035464 36.839851 -8.720545 35.280248 2.559386 114.538503 -50.245838 55.722672 -14.039007 -66.718514 -34.475056 -160.015804 -33.011526 122.698918 -164.964378 -26.177548 119.003857 -158.523072 -0.191716 142.145901 -163.409395 -5.208856 143.011943 6.8e-05 -0.018347 -0.006897 -148.826946 43.072136 163.538606 -86.000341 -50.498277 -84.371215 42.563088 80.343372 -5.182716 6.042874 25.599123 -7.234306 50.403033 45.448379 -123.490949 108.932479 -67.937645 88.141274 -1.10818 11.877301 -2.621102 150.393486 11.175086 -86.30475 -138.205868 -44.205811 -82.959937 140.165179 2.3263 -115.877517 86.964864 56.369712 -66.680733 161.517918 -9.304385 -143.625536 128.937872 51.840787 -118.062604 145.119807 0.226325 179.200124 135.662972 -63.691591 157.643428 123.03645 -31.102479 120.853408 -2.112557 -2.565139 2.420874 -0.000722 -0.000245 -0.000361 -61.040569 -63.834115 -146.646862 -73.997862 -8.681266 76.324779 78.126597 6.73523 -3.18578 -179.99921 75.749887 -0.000815 -80.838886 85.103326 172.996015 -29.12144 -3.905502 89.854576 -116.202151 -52.821885 -31.406457
-1.008 56.086499999999994 -1.2170999999999998 171.53889 16.635467 -177.094693 -18.766938 9.938893 -0.0 9.798581 -11.35439 -22.628017 -16.26074 33.867517 -72.548039 44.361795 3.754165 7.478895 -0.000976 -0.0 0.00156 -0.000976 -0.0 0.00156 -155.613396 -4.236163 161.991926 -44.826787 6.504754 6.646009 -78.288843 -38.740318 -107.202758 37.251942 -56.771894 26.632744 -90.495331 38.312678 51.261422 -0.097259 -17.532784 25.801115 179.292875 -59.501829 116.318478 87.716427 -68.085719 31.983942 -0.570953 1.648395 0.321911 166.085342 -65.601899 131.683898 -0.01343 -1.32325 -0.415268 11.215968 -13.788516 -1.715666 -157.333019 57.246456 -150.509638 0.646799 -2.297569 -2.390839 -2.788294 -21.427785 4.264683 -71.100581 -9.218532 14.263312 -147.904515 -41.021377 -93.082828 -169.235422 -6.294574 -147.864173 -1.842231 -1.827239 0.253717 30.344205 24.179836 -26.02174 19.170744 24.114386 -13.381179 -0.075599 11.819079 -1.603021 42.119767 54.613569 -35.54164 13.284713 36.401681 -10.78007 145.112272 -0.668757 178.918741 76.093128 -77.981617 97.677231 11.662021 -23.131267 11.06926 22.43991 -40.182718 23.664798 -179.993326 75.749011 -0.004566 156.210921 0.360162 0.0 -4.232076 78.94901 103.935093 -9.224751 18.199864 -81.74258 -179.993326 75.749011 -0.004566 -84.349542 85.184997 158.966657 -39.628109 -12.135953 -122.611861 -45.640101 58.093177 -70.019637
-1.0139 56.0195 -1.2342 171.62208 16.684261 -177.065548 -20.689841 8.989721 52.649243 -1.269023 -15.533247 -76.322017 3.900503 27.227192 53.604418 -31.84156 -16.375641 -126.502215 -0.003911 -0.0 0.003045 0.001599 0.0 0.004323 2.459581 -18.216321 -3.669746 59.265926 8.275302 -11.150588 102.49835 -35.825604 61.755411 -175.076693 35.54976 146.423808 -178.927355 -16.453811 89.421167 -4.659527 -55.37703 2.069339 -46.207089 39.653927 36.317849 -170.219667 -19.905305 111.815657 -8.3051 20.652608 5.561422 -7.240091 26.205916 6.045492 -72.757674 -72.142558 -89.772561 13.998786 28.312095 -0.771239 10.593023 34.894655 9.101746 -81.780286 -54.235654 -80.730725 81.707849 68.337231 -84.818703 -75.248703 -16.989748 -86.207499 -160.488645 8.82934 -120.819706 -168.185446 -9.446563 -147.32458 171.707069 -9.388076 -89.948418 16.006719 -43.604241 -3.874961 -47.867947 -65.346575 -6.095464 160.355291 -21.334451 -114.091637 0.058078 0.167707 -0.033146 7.305187 26.197636 -6.024824 75.944941 -72.111182 93.113332 -14.617794 14.932635 2.763632 12.007836 -23.631659 11.403529 -29.070841 75.128533 -6.001712 -179.981522 75.750497 -0.012643 156.31672 0.419025 -0.315493 -16.309385 72.11154 48.567917 -76.458816 9.775552 13.059947 179.953497 75.748773 0.038261 -69.071919 87.214208 -28.546904 40.920952 9.954988 93.530575 127.969239 50.990043 128.97031
-1.0944 56.067299999999996 -1.2799 171.633732 16.704656 -177.073021 -16.578925 6.667015 -111.304294 4.951898 9.867588 87.006333 -5.54804 24.484197 4.939878 2.939794 -32.655278 -70.788237 -0.001079 0.0 -0.002967 -0.001265 0.0 -0.001233 -159.220945 -48.028536 170.414889 -2.744932 46.815373 -35.937659 143.436783 81.150937 -102.940326 -11.324779 41.251289 3.635461 -173.582684 -11.253474 89.898734 -27.103941 -34.591249 2.292984 -129.576419 16.761303 108.786104 -176.706299 -36.013622 115.674097 7.902323 -24.807899 -3.013579 2.315447 2.434472 0.333488 -0.022275 -1.726058 -0.542384 -154.249378 11.213226 170.337125 -80.939069 -51.227567 -79.359774 -153.743547 36.268663 -147.126299 44.039631 64.187373 -46.709717 -5.982793 9.120443 -76.98855 -105.844845 80.754892 167.327883 -161.688532 -25.846402 -143.315445 85.830174 38.630014 -47.954841 -27.364242 -29.714605 -21.363551 1.957559 3.105262 -1.140942 -2.063463 12.412876 -2.290328 139.241698 37.933245 -127.555764 -172.931727 -58.921419 -136.55609 0.014245 -1.323296 0.41495 156.249162 -46.142364 -177.536631 -12.987652 44.344243 -10.764026 -2.036795 0.940385 0.045553 -179.993561 75.751944 -0.006643 156.374779 -1.814577 -180.0 47.53591 -72.170119 174.349681 5.513317 -5.658917 67.31875 4.3e-05 -0.001082 -5.5e-05 4.986462 15.438527 -74.431155 -39.160359 -1.52828 -44.87214 -83.43562 37.24167 -166.272948
